<svg xmlns="http://www.w3.org/2000/svg"
     viewBox="0 0 1080 1080"
     version="1.2"
     baseProfile="tiny">
  <path d="M259.766 459.728C259.766 455.743 263.146 452.677 266.832 452.677H284.191C288.185 452.677 289.721 454.823 290.797 457.122L297.402 473.368C304.776 462.64 318.448 449.152 337.65 449.152C357.927 449.152 372.367 456.509 367.144 464.939L349.017 494.366C347.481 496.972 345.023 499.118 340.876 497.738C339.032 496.972 335.345 495.899 331.966 495.899C320.905 495.899 312.457 504.329 312.457 516.897V593.071C312.457 597.516 310.306 600.122 304.315 600.122H266.679C262.992 600.122 259.612 596.75 259.612 593.071V459.728H259.766Z" fill="#161616"/>
  <path d="M443.338 452.677H402.783C399.096 452.677 395.717 455.589 395.717 459.727V592.918C395.717 596.596 399.096 599.968 402.783 599.968H443.338C447.025 599.968 450.404 596.596 450.404 592.918V459.727C450.404 455.742 447.025 452.677 443.338 452.677Z" fill="#161616"/>
  <path d="M422.753 425.549C439.036 425.549 452.247 412.674 452.247 396.428C452.247 380.181 439.036 367 422.753 367C406.469 367 393.566 380.181 393.566 396.428C393.566 412.674 406.469 425.549 422.753 425.549Z" fill="#161616"/>
  <path d="M507.089 546.171C507.089 546.171 496.335 535.136 496.335 512.758C496.335 478.58 525.523 449.152 561.162 449.152H630.904C634.898 449.152 637.97 452.064 637.97 456.202V471.223C637.97 473.828 636.127 476.434 633.976 477.507L612.623 485.17C612.623 485.17 626.602 496.512 626.602 520.882C626.602 547.704 601.87 576.365 562.851 576.365H536.276C528.595 576.365 524.14 580.35 524.14 586.327C524.14 593.378 530.438 596.29 535.969 596.29H580.21C614.927 596.29 643.654 617.288 643.654 649.934C643.654 685.185 618.921 714 560.701 714C502.48 714 483.585 687.178 483.585 664.034C483.585 640.891 502.019 630.928 506.013 628.783V627.71C501.251 626.177 477.594 615.908 477.594 586.94C477.594 557.973 507.089 546.478 507.089 546.478V546.171ZM560.701 670.932C579.135 670.932 587.276 663.575 587.276 653.612C587.276 645.949 580.671 638.132 560.701 638.132C547.49 638.132 534.125 642.883 534.125 653.612C534.125 664.341 543.035 670.932 560.701 670.932ZM562.851 535.136C574.219 535.136 582.361 527.012 582.361 515.977C582.361 504.942 574.219 496.819 562.851 496.819C551.484 496.819 543.342 504.942 543.342 515.977C543.342 527.012 551.791 535.136 562.851 535.136Z" fill="#161616"/>
  <path d="M692.197 425.549C708.48 425.549 721.691 412.674 721.691 396.428C721.691 380.181 708.48 367 692.197 367C675.913 367 663.009 380.181 663.009 396.428C663.009 412.674 675.913 425.549 692.197 425.549Z" fill="#161616"/>
  <path d="M712.935 452.677H672.38C668.693 452.677 665.314 455.589 665.314 459.727V592.918C665.314 596.596 668.693 599.968 672.38 599.968H712.935C716.622 599.968 720.001 596.596 720.001 592.918V459.727C720.001 455.742 716.622 452.677 712.935 452.677Z" fill="#161616"/>
  <path d="M747.191 459.728C747.191 455.743 750.571 452.677 754.257 452.677H771.616C773.767 452.677 777.146 454.516 778.221 457.122L784.059 471.836C792.201 462.946 809.098 448.999 835.981 448.999C881.759 448.999 906.031 483.944 906.031 525.94V592.918C906.031 596.75 902.805 599.968 898.964 599.968H859.485C855.491 599.968 852.418 596.596 852.418 592.918V524.1C852.418 509.387 843.969 496.512 827.379 496.512C812.632 496.512 799.421 507.241 799.421 522.261V592.918C799.421 596.29 797.884 599.968 792.815 599.968H754.104C750.263 599.968 747.037 596.75 747.037 592.918V459.728H747.191Z" fill="#161616"/>
  <path d="M940.441 452.677H1073.93C1077.77 452.677 1081 455.742 1081 459.727V592.918C1081 596.749 1077.93 599.968 1073.93 599.968H940.441C936.6 599.968 933.374 596.903 933.374 592.918V459.727C933.374 455.896 936.447 452.677 940.441 452.677Z" fill="#FF0000"/>
  <path d="M995.896 480.265H1023.55V512.452H1055.81V540.04H1023.55V572.227H995.896V540.04H963.637V512.452H995.896V480.265Z" fill="#ffffff"/>
  <path d="M685.284 687.331L688.51 681.047C688.51 681.047 689.739 679.974 690.507 680.281C690.507 680.281 694.808 682.733 698.802 682.733C699.724 682.733 700.492 682.12 700.492 681.047C700.492 680.127 699.878 678.901 695.269 677.215C688.049 674.763 684.977 670.625 684.977 664.954C684.977 658.823 689.432 653.765 699.417 653.765C705.254 653.765 709.709 655.298 711.706 656.677C712.474 657.29 713.242 658.057 712.628 658.976L709.248 665.26C709.248 665.26 708.019 666.027 707.251 665.873C707.251 665.873 702.95 663.728 699.417 663.728C698.188 663.728 697.42 664.034 697.42 664.954C697.42 665.873 698.495 666.793 701.567 667.866C709.095 670.472 714.164 673.384 714.164 680.741C714.164 687.178 708.941 692.389 698.649 692.389C692.504 692.389 687.895 690.856 686.052 689.324C685.438 688.71 684.977 688.251 685.438 687.331H685.284Z" fill="#161616"/>
  <path d="M722.767 666.333H720.309C719.387 666.333 718.619 665.567 718.619 664.647V656.524C718.619 655.451 719.387 654.838 720.309 654.838H722.767V644.569C722.767 643.649 723.535 642.883 724.456 642.883H734.288C735.209 642.883 735.978 643.649 735.978 644.569V654.838H742.737C743.812 654.838 744.427 655.604 744.427 656.524V664.647C744.427 665.567 743.658 666.333 742.737 666.333H735.978V677.828C735.978 679.821 737.36 679.974 738.435 679.974C739.664 679.974 741.047 679.514 741.969 679.361C742.89 679.208 743.658 679.514 743.966 680.587L745.963 688.251C746.116 689.017 745.655 690.09 744.734 690.396C744.734 690.396 738.128 692.389 733.52 692.389C726.453 692.389 722.459 687.944 722.459 679.668V666.487L722.767 666.333Z" fill="#161616"/>
  <path d="M752.261 656.371C752.261 655.298 753.029 654.685 753.951 654.685H763.782C764.704 654.685 765.472 655.451 765.472 656.371V673.384C765.472 677.215 767.623 680.434 771.309 680.434C774.843 680.434 776.84 677.062 776.84 673.844V656.218C776.84 654.685 777.915 654.532 778.837 654.532H788.207C789.129 654.532 789.897 655.298 789.897 656.218V689.477C789.897 690.397 789.129 691.163 788.207 691.163H783.906C783.138 691.163 782.37 690.55 782.216 689.937L780.834 686.565C778.376 688.864 775.457 692.236 768.391 692.236C757.484 692.236 752.107 683.346 752.107 672.924V656.218L752.261 656.371Z" fill="#161616"/>
  <path d="M815.704 653.612C818.777 653.612 822.156 654.838 823.385 655.451V628.783C823.385 627.863 824.153 627.097 825.075 627.097H835.367C836.289 627.097 837.057 627.863 837.057 628.783V689.63C837.057 690.55 836.289 691.316 835.367 691.316H831.066C830.144 691.316 829.53 690.55 829.069 689.477L827.994 686.412C827.994 686.412 823.692 692.236 815.704 692.236C805.258 692.236 797.424 683.5 797.424 672.924C797.424 659.896 805.873 653.612 815.704 653.612ZM817.394 680.434C821.695 680.434 824.768 677.062 824.768 672.924C824.768 668.786 821.695 665.567 817.394 665.567C813.093 665.567 809.867 668.786 809.867 672.924C809.867 677.062 813.093 680.434 817.394 680.434Z" fill="#161616"/>
  <path d="M846.581 636.293C846.581 632.308 849.807 628.936 853.801 628.936C857.795 628.936 861.175 632.308 861.175 636.293C861.175 640.278 857.795 643.496 853.801 643.496C849.807 643.496 846.581 640.278 846.581 636.293ZM847.042 656.371C847.042 655.298 847.81 654.685 848.732 654.685H858.871C859.792 654.685 860.56 655.451 860.56 656.371V689.63C860.56 690.55 859.792 691.316 858.871 691.316H848.732C847.81 691.316 847.042 690.55 847.042 689.63V656.371Z" fill="#161616"/>
  <path d="M886.983 653.765C897.429 653.765 906.185 662.655 906.185 672.924C906.185 683.193 897.582 692.389 886.983 692.389C876.383 692.389 867.78 683.499 867.78 672.924C867.78 662.348 876.383 653.765 886.983 653.765ZM886.983 680.434C890.977 680.434 894.203 677.062 894.203 672.924C894.203 668.786 890.977 665.567 886.983 665.567C882.989 665.567 879.763 668.939 879.763 672.924C879.763 676.909 882.989 680.434 886.983 680.434Z" fill="#161616"/>
  <path d="M44.5488 459.114V456.968C44.5488 452.567 40.9724 448.999 36.5607 448.999H7.98806C3.57638 448.999 0 452.567 0 456.968V459.114C0 463.516 3.57638 467.084 7.98806 467.084H36.5607C40.9724 467.084 44.5488 463.516 44.5488 459.114Z" fill="#161616"/>
  <path d="M55.5033 428.457L57.0241 426.939C60.1436 423.827 60.1436 418.781 57.0241 415.668L36.8201 395.51C33.7006 392.398 28.6428 392.398 25.5233 395.51L24.0026 397.027C20.883 400.14 20.883 405.186 24.0026 408.299L44.2065 428.457C47.326 431.569 52.3838 431.569 55.5033 428.457Z" fill="#161616"/>
  <path d="M85.7159 413.977L87.8666 413.975C92.2782 413.971 95.8515 410.4 95.8476 405.998L95.8227 377.49C95.8189 373.088 92.2394 369.523 87.8277 369.527L85.677 369.529C81.2654 369.533 77.6921 373.104 77.696 377.506L77.7209 406.014C77.7247 410.415 81.3042 413.981 85.7159 413.977Z" fill="#161616"/>
  <path fill-rule="evenodd" clip-rule="evenodd" d="M151.313 448.999H84.7967C80.9563 448.999 77.7304 452.064 77.7304 456.049V522.568C77.7304 566.862 113.523 605.026 157.918 603.493C198.473 602.114 231.04 569.468 232.422 529.005C233.958 484.71 195.708 448.999 151.313 448.999ZM125.198 526.246C125.198 542.799 138.563 556.133 155.153 556.133C171.744 556.133 185.108 542.799 185.108 526.246C185.108 509.693 171.744 496.359 155.153 496.359C138.563 496.359 125.198 509.693 125.198 526.246Z" fill="#161616"/>
</svg>